<svg width="288.58" height="302.75"  viewBox="0 0 288.58 302.75" fill="none" xmlns="http://www.w3.org/2000/svg">
  <defs>
    <style>
      .cls-1 {
      fill: #f7f6f3;
      }
    </style>
  </defs>
  <g id="Layer_1-2" data-name="Layer 1">
    <path class="cls-1" d="M205.79,69.73v-14.85h23.37v-13.36h-80.27l-54.82-31.62V0h-19.35v9.87l-54.88,31.65H0v13.36h74.71v247.87h19.35V54.88h104.04v14.63c-1.2-.02-2.41-.03-3.64-.03h-85.8v233.27h67.15v-73.52h18.73c59.2,0,94.05-18.31,94.05-78.84v-2.06c0-56.38-30.5-76.23-82.79-78.6ZM74.71,41.52h-38.86l38.86-22.42v22.42ZM94.06,41.52v-22.39l38.81,22.39h-38.81ZM227.42,175.25h-51.76v-51.76h22.43v-53.98c2.61.03,5.18.1,7.69.21v53.76h21.64v51.76Z"/>
  </g>
</svg>